<?xml version="1.0" encoding="UTF-8"?>
<!DOCTYPE svg PUBLIC "-//W3C//DTD SVG 1.1//EN" "http://www.w3.org/Graphics/SVG/1.1/DTD/svg11.dtd">
<svg xmlns="http://www.w3.org/2000/svg" version="1.1" width="250px" height="173px" style="shape-rendering:geometricPrecision; text-rendering:geometricPrecision; image-rendering:optimizeQuality; fill-rule:evenodd; clip-rule:evenodd" xmlns:xlink="http://www.w3.org/1999/xlink">
<g><path style="opacity:0.626" fill="#455fc7" d="M 88.5,10.5 C 101.656,9.5044 114.99,9.17107 128.5,9.5C 128.5,14.5 128.5,19.5 128.5,24.5C 128.5,24.8333 128.5,25.1667 128.5,25.5C 128.167,25.5 127.833,25.5 127.5,25.5C 127.5,20.5 127.5,15.5 127.5,10.5C 114.5,10.5 101.5,10.5 88.5,10.5 Z"/></g>
<g><path style="opacity:0.8" fill="#5377d3" d="M 83.5,11.5 C 81.4855,12.9238 79.1522,13.5905 76.5,13.5C 78.5145,12.0762 80.8478,11.4095 83.5,11.5 Z"/></g>
<g><path style="opacity:1" fill="#0343fc" d="M 87.5,11.5 C 93.8333,11.5 100.167,11.5 106.5,11.5C 106.974,15.0141 107.307,18.8474 107.5,23C 106.874,27.8622 106.207,32.6955 105.5,37.5C 106.5,37.5 107.5,37.5 108.5,37.5C 108.222,35.6536 108.889,34.3202 110.5,33.5C 111.94,34.9524 113.606,35.9524 115.5,36.5C 113.902,38.6979 112.569,41.0313 111.5,43.5C 109.659,45.8485 108.326,48.5152 107.5,51.5C 105.929,53.6351 104.596,55.9684 103.5,58.5C 101.087,59.6798 100.087,61.6798 100.5,64.5C 98.8333,64.5 97.1667,64.5 95.5,64.5C 93.7354,63.5386 91.7354,63.2053 89.5,63.5C 88.1066,59.965 86.9399,56.2983 86,52.5C 85.1679,42.8161 85.3345,33.1495 86.5,23.5C 90.4629,19.7532 90.4629,16.0866 86.5,12.5C 87.1667,12.5 87.5,12.1667 87.5,11.5 Z"/></g>
<g><path style="opacity:1" fill="#0439fb" d="M 106.5,11.5 C 113.167,11.5 119.833,11.5 126.5,11.5C 126.827,16.544 126.494,21.544 125.5,26.5C 123.389,27.6046 122.055,29.2712 121.5,31.5C 119.5,33.1667 117.5,34.8333 115.5,36.5C 113.606,35.9524 111.94,34.9524 110.5,33.5C 108.889,34.3202 108.222,35.6536 108.5,37.5C 107.5,37.5 106.5,37.5 105.5,37.5C 106.207,32.6955 106.874,27.8622 107.5,23C 107.307,18.8474 106.974,15.0141 106.5,11.5 Z"/></g>
<g><path style="opacity:1" fill="#fdd706" d="M 202.5,11.5 C 197.167,11.5 191.833,11.5 186.5,11.5C 179.749,11.1031 175.082,11.4364 172.5,12.5C 172.907,22.2651 173.907,31.9318 175.5,41.5C 174.261,59.3813 173.761,77.3813 174,95.5C 174.5,96.6667 175.333,97.5 176.5,98C 175.833,98.3333 175.167,98.6667 174.5,99C 176.167,99.3333 177.833,99.6667 179.5,100C 176.05,101.03 172.717,102.363 169.5,104C 170.167,104.333 170.833,104.667 171.5,105C 168.274,106.199 164.941,106.699 161.5,106.5C 162.823,104.529 164.156,102.529 165.5,100.5C 164.119,98.3089 162.119,96.9756 159.5,96.5C 160.557,96.0941 161.891,96.0941 163.5,96.5C 163.439,69.939 163.439,43.439 163.5,17C 163.37,15.9412 162.87,15.1079 162,14.5C 158.941,14.2696 155.774,14.6029 152.5,15.5C 151.5,15.5 150.5,15.5 149.5,15.5C 151.261,14.6873 152.928,13.6873 154.5,12.5C 170.61,10.3848 186.61,10.0515 202.5,11.5 Z"/></g>
<g><path style="opacity:1" fill="#fed104" d="M 186.5,11.5 C 185.737,12.2679 184.737,12.7679 183.5,13C 184.809,18.5896 185.475,24.423 185.5,30.5C 184.71,52.869 184.377,75.0357 184.5,97C 185.167,97.6667 185.833,98.3333 186.5,99C 188.9,99.1858 191.234,99.6858 193.5,100.5C 190.553,101.321 187.553,101.821 184.5,102C 183.62,103.356 183.286,104.856 183.5,106.5C 165.534,107.46 147.534,107.793 129.5,107.5C 129.5,107.167 129.5,106.833 129.5,106.5C 131.5,106.5 133.5,106.5 135.5,106.5C 143.5,106.5 151.5,106.5 159.5,106.5C 160.167,106.5 160.833,106.5 161.5,106.5C 164.941,106.699 168.274,106.199 171.5,105C 170.833,104.667 170.167,104.333 169.5,104C 172.717,102.363 176.05,101.03 179.5,100C 177.833,99.6667 176.167,99.3333 174.5,99C 175.167,98.6667 175.833,98.3333 176.5,98C 175.333,97.5 174.5,96.6667 174,95.5C 173.761,77.3813 174.261,59.3813 175.5,41.5C 173.907,31.9318 172.907,22.2651 172.5,12.5C 175.082,11.4364 179.749,11.1031 186.5,11.5 Z"/></g>
<g><path style="opacity:1" fill="#fcca0c" d="M 186.5,11.5 C 191.833,11.5 197.167,11.5 202.5,11.5C 203.498,43.6624 203.832,75.9957 203.5,108.5C 178.5,108.5 153.5,108.5 128.5,108.5C 128.5,108.167 128.5,107.833 128.5,107.5C 128.833,107.5 129.167,107.5 129.5,107.5C 147.534,107.793 165.534,107.46 183.5,106.5C 183.286,104.856 183.62,103.356 184.5,102C 187.553,101.821 190.553,101.321 193.5,100.5C 191.234,99.6858 188.9,99.1858 186.5,99C 185.833,98.3333 185.167,97.6667 184.5,97C 184.377,75.0357 184.71,52.869 185.5,30.5C 185.475,24.423 184.809,18.5896 183.5,13C 184.737,12.7679 185.737,12.2679 186.5,11.5 Z"/></g>
<g><path style="opacity:1" fill="#034efd" d="M 86.5,12.5 C 90.4629,16.0866 90.4629,19.7532 86.5,23.5C 85.3345,33.1495 85.1679,42.8161 86,52.5C 86.9399,56.2983 88.1066,59.965 89.5,63.5C 91.7354,63.2053 93.7354,63.5386 95.5,64.5C 90.1667,64.5 84.8333,64.5 79.5,64.5C 78.4097,62.5633 77.0764,60.73 75.5,59C 76.1258,58.2496 76.6258,57.4162 77,56.5C 77.1947,47.7854 77.6947,39.1188 78.5,30.5C 77.2634,29.7193 76.2634,28.7193 75.5,27.5C 76.8333,26.1667 78.1667,24.8333 79.5,23.5C 78.7366,22.2807 77.7366,21.2807 76.5,20.5C 77.9756,19.1198 78.9756,17.4531 79.5,15.5C 81.9389,14.5927 84.2722,13.5927 86.5,12.5 Z"/></g>
<g><path style="opacity:0.922" fill="#f9ea7a" d="M 154.5,12.5 C 152.928,13.6873 151.261,14.6873 149.5,15.5C 146.994,16.7496 144.327,17.4162 141.5,17.5C 145.395,14.8655 149.728,13.1988 154.5,12.5 Z"/></g>
<g><path style="opacity:1" fill="#fedd01" d="M 161.5,106.5 C 160.833,106.5 160.167,106.5 159.5,106.5C 156.132,104.941 152.465,104.108 148.5,104C 150.697,101.352 150.697,98.8524 148.5,96.5C 150.776,93.7665 151.11,90.7665 149.5,87.5C 152.064,85.0159 152.064,82.5159 149.5,80C 150.798,75.9228 151.464,71.5894 151.5,67C 150.189,56.4098 150.189,45.9098 151.5,35.5C 151.333,34.1667 151.167,32.8333 151,31.5C 149.757,32.3363 148.59,32.003 147.5,30.5C 148.246,29.2638 148.579,27.9305 148.5,26.5C 149.5,26.5 150.5,26.5 151.5,26.5C 150.709,23.7418 150.042,21.2418 149.5,19C 150.365,17.6412 151.365,16.4745 152.5,15.5C 155.774,14.6029 158.941,14.2696 162,14.5C 162.87,15.1079 163.37,15.9412 163.5,17C 163.439,43.439 163.439,69.939 163.5,96.5C 161.891,96.0941 160.557,96.0941 159.5,96.5C 162.119,96.9756 164.119,98.3089 165.5,100.5C 164.156,102.529 162.823,104.529 161.5,106.5 Z"/></g>
<g><path style="opacity:1" fill="#1638d3" d="M 87.5,11.5 C 87.5,11.1667 87.5,10.8333 87.5,10.5C 87.8333,10.5 88.1667,10.5 88.5,10.5C 101.5,10.5 114.5,10.5 127.5,10.5C 127.5,15.5 127.5,20.5 127.5,25.5C 127.443,26.609 127.11,27.609 126.5,28.5C 124.589,29.075 122.922,30.075 121.5,31.5C 122.055,29.2712 123.389,27.6046 125.5,26.5C 126.494,21.544 126.827,16.544 126.5,11.5C 119.833,11.5 113.167,11.5 106.5,11.5C 100.167,11.5 93.8333,11.5 87.5,11.5 Z"/></g>
<g><path style="opacity:1" fill="#456bda" d="M 76.5,13.5 C 72.4678,15.847 68.4678,18.1803 64.5,20.5C 61.1689,20.8306 58.8356,22.4973 57.5,25.5C 56.1667,25.5 54.8333,25.5 53.5,25.5C 59.104,20.6875 65.4374,16.8542 72.5,14C 73.7932,13.51 75.1266,13.3433 76.5,13.5 Z"/></g>
<g><path style="opacity:0.314" fill="#f9ef90" d="M 141.5,17.5 C 140.167,18.8333 138.833,20.1667 137.5,21.5C 136.167,21.8333 134.833,22.1667 133.5,22.5C 135.629,20.0499 138.296,18.3833 141.5,17.5 Z"/></g>
<g><path style="opacity:1" fill="#fde305" d="M 149.5,15.5 C 150.5,15.5 151.5,15.5 152.5,15.5C 151.365,16.4745 150.365,17.6412 149.5,19C 150.042,21.2418 150.709,23.7418 151.5,26.5C 150.5,26.5 149.5,26.5 148.5,26.5C 148.579,27.9305 148.246,29.2638 147.5,30.5C 148.59,32.003 149.757,32.3363 151,31.5C 151.167,32.8333 151.333,34.1667 151.5,35.5C 150.189,45.9098 150.189,56.4098 151.5,67C 151.464,71.5894 150.798,75.9228 149.5,80C 152.064,82.5159 152.064,85.0159 149.5,87.5C 151.11,90.7665 150.776,93.7665 148.5,96.5C 150.697,98.8524 150.697,101.352 148.5,104C 152.465,104.108 156.132,104.941 159.5,106.5C 151.5,106.5 143.5,106.5 135.5,106.5C 137.168,104.521 137.834,102.188 137.5,99.5C 136.448,99.6495 135.448,99.4828 134.5,99C 135.833,98 137.167,97 138.5,96C 137.167,74.3333 137.167,52.6667 138.5,31C 137.313,29.9805 136.313,28.8139 135.5,27.5C 137.086,25.8273 137.753,23.8273 137.5,21.5C 138.833,20.1667 140.167,18.8333 141.5,17.5C 144.327,17.4162 146.994,16.7496 149.5,15.5 Z"/></g>
<g><path style="opacity:1" fill="#0955fc" d="M 87.5,10.5 C 87.5,10.8333 87.5,11.1667 87.5,11.5C 87.5,12.1667 87.1667,12.5 86.5,12.5C 84.2722,13.5927 81.9389,14.5927 79.5,15.5C 78.9756,17.4531 77.9756,19.1198 76.5,20.5C 77.7366,21.2807 78.7366,22.2807 79.5,23.5C 78.1667,24.8333 76.8333,26.1667 75.5,27.5C 76.2634,28.7193 77.2634,29.7193 78.5,30.5C 77.6947,39.1188 77.1947,47.7854 77,56.5C 76.6258,57.4162 76.1258,58.2496 75.5,59C 77.0764,60.73 78.4097,62.5633 79.5,64.5C 75.1667,64.5 70.8333,64.5 66.5,64.5C 67.8083,63.7677 69.1416,62.9344 70.5,62C 69.3333,61.5 68.5,60.6667 68,59.5C 67.6017,50.1493 67.6017,40.8159 68,31.5C 66.8687,32.6039 66.0354,32.2705 65.5,30.5C 66.8333,29.8333 68.1667,29.1667 69.5,28.5C 68.102,26.8697 67.102,25.0363 66.5,23C 67.1667,22.6667 67.8333,22.3333 68.5,22C 66.9419,21.79 65.6085,21.29 64.5,20.5C 68.4678,18.1803 72.4678,15.847 76.5,13.5C 79.1522,13.5905 81.4855,12.9238 83.5,11.5C 84.5676,10.5655 85.901,10.2322 87.5,10.5 Z"/></g>
<g><path style="opacity:1" fill="#045efd" d="M 64.5,20.5 C 65.6085,21.29 66.9419,21.79 68.5,22C 67.8333,22.3333 67.1667,22.6667 66.5,23C 67.102,25.0363 68.102,26.8697 69.5,28.5C 68.1667,29.1667 66.8333,29.8333 65.5,30.5C 66.0354,32.2705 66.8687,32.6039 68,31.5C 67.6017,40.8159 67.6017,50.1493 68,59.5C 68.5,60.6667 69.3333,61.5 70.5,62C 69.1416,62.9344 67.8083,63.7677 66.5,64.5C 61.4889,64.6659 56.4889,64.4993 51.5,64C 48.2634,61.5813 47.93,58.9146 50.5,56C 49.8333,50.3333 49.1667,44.6667 48.5,39C 49.8333,36.6667 51.1667,34.3333 52.5,32C 51.5075,28.7259 52.6742,27.8926 56,29.5C 57.5,28.5 59,27.5 60.5,26.5C 59.675,25.6143 58.675,25.281 57.5,25.5C 58.8356,22.4973 61.1689,20.8306 64.5,20.5 Z"/></g>
<g><path style="opacity:1" fill="#fce708" d="M 137.5,21.5 C 137.753,23.8273 137.086,25.8273 135.5,27.5C 136.313,28.8139 137.313,29.9805 138.5,31C 137.167,52.6667 137.167,74.3333 138.5,96C 137.167,97 135.833,98 134.5,99C 135.448,99.4828 136.448,99.6495 137.5,99.5C 137.834,102.188 137.168,104.521 135.5,106.5C 133.5,106.5 131.5,106.5 129.5,106.5C 129.333,79.4979 129.5,52.4979 130,25.5C 130.717,24.9558 131.217,24.2891 131.5,23.5C 131.842,22.6618 132.508,22.3284 133.5,22.5C 134.833,22.1667 136.167,21.8333 137.5,21.5 Z"/></g>
<g><path style="opacity:0.569" fill="#6a90d9" d="M 53.5,25.5 C 51.0374,29.3002 47.704,31.9668 43.5,33.5C 46.4595,30.3552 49.7929,27.6885 53.5,25.5 Z"/></g>
<g><path style="opacity:1" fill="#2b40a1" d="M 126.5,28.5 C 126.5,28.8333 126.5,29.1667 126.5,29.5C 125.167,30.5 123.833,31.5 122.5,32.5C 119.097,34.8998 116.43,37.8998 114.5,41.5C 113.5,42.1667 112.5,42.8333 111.5,43.5C 112.569,41.0313 113.902,38.6979 115.5,36.5C 117.5,34.8333 119.5,33.1667 121.5,31.5C 122.922,30.075 124.589,29.075 126.5,28.5 Z"/></g>
<g><path style="opacity:0.827" fill="#668bd9" d="M 43.5,33.5 C 43.6085,35.5138 42.9418,37.1805 41.5,38.5C 39.8333,39.8333 38.1667,41.1667 36.5,42.5C 38.4581,39.2085 40.7915,36.2085 43.5,33.5 Z"/></g>
<g><path style="opacity:1" fill="#0763f7" d="M 53.5,25.5 C 54.8333,25.5 56.1667,25.5 57.5,25.5C 58.675,25.281 59.675,25.6143 60.5,26.5C 59,27.5 57.5,28.5 56,29.5C 52.6742,27.8926 51.5075,28.7259 52.5,32C 51.1667,34.3333 49.8333,36.6667 48.5,39C 49.1667,44.6667 49.8333,50.3333 50.5,56C 47.93,58.9146 48.2634,61.5813 51.5,64C 56.4889,64.4993 61.4889,64.6659 66.5,64.5C 70.8333,64.5 75.1667,64.5 79.5,64.5C 84.8333,64.5 90.1667,64.5 95.5,64.5C 97.1667,64.5 98.8333,64.5 100.5,64.5C 100.087,61.6798 101.087,59.6798 103.5,58.5C 102.545,60.7457 101.878,63.079 101.5,65.5C 83.5,65.5 65.5,65.5 47.5,65.5C 44.3752,64.5206 41.0419,64.1872 37.5,64.5C 37.7718,57.2963 39.7718,50.6296 43.5,44.5C 43.1667,43.5 42.8333,42.5 42.5,41.5C 41.6043,42.5063 40.9377,42.5063 40.5,41.5C 41.1272,40.5832 41.4606,39.5832 41.5,38.5C 42.9418,37.1805 43.6085,35.5138 43.5,33.5C 47.704,31.9668 51.0374,29.3002 53.5,25.5 Z"/></g>
<g><path style="opacity:1" fill="#2f3a63" d="M 122.5,32.5 C 120.57,36.1002 117.903,39.1002 114.5,41.5C 116.43,37.8998 119.097,34.8998 122.5,32.5 Z"/></g>
<g><path style="opacity:1" fill="#f4eb53" d="M 131.5,23.5 C 131.217,24.2891 130.717,24.9558 130,25.5C 129.5,52.4979 129.333,79.4979 129.5,106.5C 129.5,106.833 129.5,107.167 129.5,107.5C 129.167,107.5 128.833,107.5 128.5,107.5C 128.5,80.1667 128.5,52.8333 128.5,25.5C 128.5,25.1667 128.5,24.8333 128.5,24.5C 129.391,23.8902 130.391,23.5569 131.5,23.5 Z"/></g>
<g><path style="opacity:1" fill="#3b3b3a" d="M 126.5,29.5 C 126.176,55.9076 126.51,82.2409 127.5,108.5C 127.5,121.167 127.5,133.833 127.5,146.5C 125.754,144.748 123.754,143.415 121.5,142.5C 119.913,139.732 118.08,137.065 116,134.5C 115.329,133.748 114.496,133.414 113.5,133.5C 111.396,131.628 110.063,129.295 109.5,126.5C 108.554,122.608 107.054,118.941 105,115.5C 104.667,112.833 104.333,110.167 104,107.5C 103.667,107.833 103.333,108.167 103,108.5C 102.8,106.68 101.966,105.347 100.5,104.5C 100.642,91.9709 100.642,79.6375 100.5,67.5C 100.167,67.5 99.8333,67.5 99.5,67.5C 99.5,67.1667 99.5,66.8333 99.5,66.5C 100.675,66.719 101.675,66.3857 102.5,65.5C 103.573,62.3561 104.907,59.3561 106.5,56.5C 109.605,51.8346 112.272,46.8346 114.5,41.5C 117.903,39.1002 120.57,36.1002 122.5,32.5C 123.833,31.5 125.167,30.5 126.5,29.5 Z"/></g>
<g><path style="opacity:1" fill="#4e4817" d="M 127.5,25.5 C 127.833,25.5 128.167,25.5 128.5,25.5C 128.5,52.8333 128.5,80.1667 128.5,107.5C 128.5,107.833 128.5,108.167 128.5,108.5C 128.167,108.5 127.833,108.5 127.5,108.5C 126.51,82.2409 126.176,55.9076 126.5,29.5C 126.5,29.1667 126.5,28.8333 126.5,28.5C 127.11,27.609 127.443,26.609 127.5,25.5 Z"/></g>
<g><path style="opacity:1" fill="#5586de" d="M 36.5,42.5 C 36.6567,43.8734 36.49,45.2068 36,46.5C 33.7019,50.1486 31.2019,53.4819 28.5,56.5C 30.1588,51.1734 32.8255,46.5067 36.5,42.5 Z"/></g>
<g><path style="opacity:1" fill="#323c58" d="M 114.5,41.5 C 112.272,46.8346 109.605,51.8346 106.5,56.5C 107.038,54.8828 107.371,53.2161 107.5,51.5C 108.326,48.5152 109.659,45.8485 111.5,43.5C 112.5,42.8333 113.5,42.1667 114.5,41.5 Z"/></g>
<g><path style="opacity:1" fill="#0a6df9" d="M 41.5,38.5 C 41.4606,39.5832 41.1272,40.5832 40.5,41.5C 40.9377,42.5063 41.6043,42.5063 42.5,41.5C 42.8333,42.5 43.1667,43.5 43.5,44.5C 39.7718,50.6296 37.7718,57.2963 37.5,64.5C 34.1016,64.8204 30.7683,64.487 27.5,63.5C 28.3742,61.2534 28.7076,58.9201 28.5,56.5C 31.2019,53.4819 33.7019,50.1486 36,46.5C 36.49,45.2068 36.6567,43.8734 36.5,42.5C 38.1667,41.1667 39.8333,39.8333 41.5,38.5 Z"/></g>
<g><path style="opacity:0.531" fill="#eacf67" d="M 204.5,108.5 C 204.167,108.5 203.833,108.5 203.5,108.5C 203.832,75.9957 203.498,43.6624 202.5,11.5C 186.61,10.0515 170.61,10.3848 154.5,12.5C 157.577,11.144 160.91,10.3106 164.5,10C 177.829,9.5001 191.163,9.33344 204.5,9.5C 204.5,42.5 204.5,75.5 204.5,108.5 Z"/></g>
<g><path style="opacity:1" fill="#2c75de" d="M 28.5,56.5 C 28.7076,58.9201 28.3742,61.2534 27.5,63.5C 30.7683,64.487 34.1016,64.8204 37.5,64.5C 41.0419,64.1872 44.3752,64.5206 47.5,65.5C 40.1667,65.5 32.8333,65.5 25.5,65.5C 25.6896,62.145 26.6896,59.145 28.5,56.5 Z"/></g>
<g><path style="opacity:1" fill="#185899" d="M 107.5,51.5 C 107.371,53.2161 107.038,54.8828 106.5,56.5C 104.907,59.3561 103.573,62.3561 102.5,65.5C 101.675,66.3857 100.675,66.719 99.5,66.5C 74.661,66.831 49.9944,66.4977 25.5,65.5C 32.8333,65.5 40.1667,65.5 47.5,65.5C 65.5,65.5 83.5,65.5 101.5,65.5C 101.878,63.079 102.545,60.7457 103.5,58.5C 104.596,55.9684 105.929,53.6351 107.5,51.5 Z"/></g>
<g><path style="opacity:1" fill="#38bca1" d="M 25.5,65.5 C 49.9944,66.4977 74.661,66.831 99.5,66.5C 99.5,66.8333 99.5,67.1667 99.5,67.5C 74.5,67.5 49.5,67.5 24.5,67.5C 24.3284,66.5084 24.6618,65.8417 25.5,65.5 Z"/></g>
<g><path style="opacity:1" fill="#02cd02" d="M 99.5,70.5 C 99.5,71.5 99.5,72.5 99.5,73.5C 98.5041,73.4142 97.6708,73.7476 97,74.5C 96.6157,84.2571 96.449,93.9238 96.5,103.5C 97.7919,105.667 98.6253,108 99,110.5C 99.6708,111.252 100.504,111.586 101.5,111.5C 101.5,111.833 101.5,112.167 101.5,112.5C 102.48,118.785 104.313,124.785 107,130.5C 109.513,131.848 111.347,133.848 112.5,136.5C 113.325,137.386 114.325,137.719 115.5,137.5C 116.373,139.886 117.873,141.886 120,143.5C 120.003,147.882 122.169,149.549 126.5,148.5C 126.656,152.582 126.156,156.582 125,160.5C 123.601,161.227 122.101,161.727 120.5,162C 104.683,163.214 89.0159,162.38 73.5,159.5C 72.5688,157.978 71.4021,156.645 70,155.5C 64.7891,155.034 59.9558,153.701 55.5,151.5C 54.1769,149.529 52.8435,147.529 51.5,145.5C 47.8712,143.845 44.5378,141.845 41.5,139.5C 39.9373,138.055 38.604,136.389 37.5,134.5C 37.5,133.167 37.5,131.833 37.5,130.5C 38.0906,129.849 38.7573,129.182 39.5,128.5C 36.3162,127.797 34.8162,125.797 35,122.5C 26.8125,112.762 23.3125,101.429 24.5,88.5C 24.3487,81.7259 25.0154,75.0592 26.5,68.5C 51.1896,67.843 75.5229,68.5097 99.5,70.5 Z"/></g>
<g><path style="opacity:1" fill="#244c1f" d="M 100.5,67.5 C 100.642,79.6375 100.642,91.9709 100.5,104.5C 98.292,94.3672 97.9587,84.0339 99.5,73.5C 99.5,72.5 99.5,71.5 99.5,70.5C 100.404,69.791 100.737,68.791 100.5,67.5 Z"/></g>
<g><path style="opacity:1" fill="#41c738" d="M 24.5,67.5 C 49.5,67.5 74.5,67.5 99.5,67.5C 99.8333,67.5 100.167,67.5 100.5,67.5C 100.737,68.791 100.404,69.791 99.5,70.5C 75.5229,68.5097 51.1896,67.843 26.5,68.5C 25.0154,75.0592 24.3487,81.7259 24.5,88.5C 23.3125,101.429 26.8125,112.762 35,122.5C 34.8162,125.797 36.3162,127.797 39.5,128.5C 38.7573,129.182 38.0906,129.849 37.5,130.5C 36.3406,128.75 34.674,127.75 32.5,127.5C 21.7041,108.594 19.0374,88.5945 24.5,67.5 Z"/></g>
<g><path style="opacity:1" fill="#31bb28" d="M 99.5,73.5 C 97.9587,84.0339 98.292,94.3672 100.5,104.5C 100.993,106.806 101.326,109.139 101.5,111.5C 100.504,111.586 99.6708,111.252 99,110.5C 98.6253,108 97.7919,105.667 96.5,103.5C 96.449,93.9238 96.6157,84.2571 97,74.5C 97.6708,73.7476 98.5041,73.4142 99.5,73.5 Z"/></g>
<g><path style="opacity:1" fill="#e71308" d="M 202.5,110.5 C 179.164,110.333 155.831,110.5 132.5,111C 132,111.5 131.5,112 131,112.5C 130.333,124.167 130.333,135.833 131,147.5C 135.248,153.206 140.748,156.039 147.5,156C 149.271,157.524 150.938,159.024 152.5,160.5C 149.598,159.422 146.598,158.756 143.5,158.5C 138.932,156.597 134.598,154.264 130.5,151.5C 130.5,151.167 130.5,150.833 130.5,150.5C 129.535,136.882 129.202,123.216 129.5,109.5C 154.006,109.169 178.339,109.502 202.5,110.5 Z"/></g>
<g><path style="opacity:1" fill="#fd0000" d="M 202.5,110.5 C 202.5,128.5 202.5,146.5 202.5,164.5C 187.816,164.685 173.149,164.351 158.5,163.5C 156.5,162.5 154.5,161.5 152.5,160.5C 150.938,159.024 149.271,157.524 147.5,156C 140.748,156.039 135.248,153.206 131,147.5C 130.333,135.833 130.333,124.167 131,112.5C 131.5,112 132,111.5 132.5,111C 155.831,110.5 179.164,110.333 202.5,110.5 Z"/></g>
<g><path style="opacity:1" fill="#294e20" d="M 100.5,104.5 C 101.966,105.347 102.8,106.68 103,108.5C 103.333,108.167 103.667,107.833 104,107.5C 104.333,110.167 104.667,112.833 105,115.5C 107.054,118.941 108.554,122.608 109.5,126.5C 106.295,122.084 103.628,117.417 101.5,112.5C 101.5,112.167 101.5,111.833 101.5,111.5C 101.326,109.139 100.993,106.806 100.5,104.5 Z"/></g>
<g><path style="opacity:1" fill="#6bce5c" d="M 32.5,127.5 C 34.674,127.75 36.3406,128.75 37.5,130.5C 37.5,131.833 37.5,133.167 37.5,134.5C 35.4776,132.469 33.8109,130.135 32.5,127.5 Z"/></g>
<g><path style="opacity:1" fill="#2ebe28" d="M 101.5,112.5 C 103.628,117.417 106.295,122.084 109.5,126.5C 110.063,129.295 111.396,131.628 113.5,133.5C 114.6,134.605 115.267,135.938 115.5,137.5C 114.325,137.719 113.325,137.386 112.5,136.5C 111.347,133.848 109.513,131.848 107,130.5C 104.313,124.785 102.48,118.785 101.5,112.5 Z"/></g>
<g><path style="opacity:1" fill="#225117" d="M 113.5,133.5 C 114.496,133.414 115.329,133.748 116,134.5C 118.08,137.065 119.913,139.732 121.5,142.5C 119.5,140.833 117.5,139.167 115.5,137.5C 115.267,135.938 114.6,134.605 113.5,133.5 Z"/></g>
<g><path style="opacity:1" fill="#254f12" d="M 121.5,142.5 C 123.754,143.415 125.754,144.748 127.5,146.5C 127.5,147.167 127.5,147.833 127.5,148.5C 127.167,148.5 126.833,148.5 126.5,148.5C 124.833,146.5 123.167,144.5 121.5,142.5 Z"/></g>
<g><path style="opacity:1" fill="#5ac94c" d="M 41.5,139.5 C 44.5378,141.845 47.8712,143.845 51.5,145.5C 52.8435,147.529 54.1769,149.529 55.5,151.5C 49.9448,148.617 45.2781,144.617 41.5,139.5 Z"/></g>
<g><path style="opacity:1" fill="#33be2b" d="M 115.5,137.5 C 117.5,139.167 119.5,140.833 121.5,142.5C 123.167,144.5 124.833,146.5 126.5,148.5C 122.169,149.549 120.003,147.882 120,143.5C 117.873,141.886 116.373,139.886 115.5,137.5 Z"/></g>
<g><path style="opacity:1" fill="#38c82c" d="M 55.5,151.5 C 59.9558,153.701 64.7891,155.034 70,155.5C 71.4021,156.645 72.5688,157.978 73.5,159.5C 72.1667,159.5 70.8333,159.5 69.5,159.5C 64.1734,157.841 59.5067,155.174 55.5,151.5 Z"/></g>
<g><path style="opacity:0.239" fill="#86ca71" d="M 127.5,148.5 C 128.5,149.167 129.5,149.833 130.5,150.5C 130.5,150.833 130.5,151.167 130.5,151.5C 128.862,155.913 127.862,160.579 127.5,165.5C 127.5,159.833 127.5,154.167 127.5,148.5 Z"/></g>
<g><path style="opacity:0.973" fill="#d23d39" d="M 143.5,158.5 C 146.598,158.756 149.598,159.422 152.5,160.5C 154.5,161.5 156.5,162.5 158.5,163.5C 153.085,162.806 148.085,161.14 143.5,158.5 Z"/></g>
<g><path style="opacity:0.875" fill="#80d672" d="M 69.5,159.5 C 70.8333,159.5 72.1667,159.5 73.5,159.5C 76.0791,161.025 78.7458,162.359 81.5,163.5C 77.0845,163.139 73.0845,161.806 69.5,159.5 Z"/></g>
<g><path style="opacity:1" fill="#42cc34" d="M 126.5,148.5 C 126.833,148.5 127.167,148.5 127.5,148.5C 127.5,154.167 127.5,159.833 127.5,165.5C 116.674,166.659 105.674,166.826 94.5,166C 90.0148,165.734 85.6815,164.9 81.5,163.5C 78.7458,162.359 76.0791,161.025 73.5,159.5C 89.0159,162.38 104.683,163.214 120.5,162C 122.101,161.727 123.601,161.227 125,160.5C 126.156,156.582 126.656,152.582 126.5,148.5 Z"/></g>
<g><path style="opacity:0.945" fill="#cb3425" d="M 127.5,108.5 C 127.833,108.5 128.167,108.5 128.5,108.5C 153.5,108.5 178.5,108.5 203.5,108.5C 203.833,108.5 204.167,108.5 204.5,108.5C 204.667,127.503 204.5,146.503 204,165.5C 193.243,166.653 182.41,166.82 171.5,166C 166.899,165.851 162.566,165.018 158.5,163.5C 173.149,164.351 187.816,164.685 202.5,164.5C 202.5,146.5 202.5,128.5 202.5,110.5C 178.339,109.502 154.006,109.169 129.5,109.5C 129.202,123.216 129.535,136.882 130.5,150.5C 129.5,149.833 128.5,149.167 127.5,148.5C 127.5,147.833 127.5,147.167 127.5,146.5C 127.5,133.833 127.5,121.167 127.5,108.5 Z"/></g>
</svg>
